<svg xmlns="http://www.w3.org/2000/svg" viewBox="0 0 242.45 60"><g id="Capa_2" data-name="Capa 2"><g id="Capa_1-2" data-name="Capa 1"><path d="M190.48,17.78H154.24a.71.71,0,0,0-.61.44l-6.46,24a.33.33,0,0,0,.32.45h37c6.75,0,7.76-3.52,8.65-7l.89-3.19a2.73,2.73,0,0,0-1.17-3.4c-.33-.24-.41-.6,0-.77a2.58,2.58,0,0,0,1.73-2.18l1.17-4.36c.69-2.39-1.93-4.08-5.25-4.08m-7.27,15.39-.81,3a3.16,3.16,0,0,1-3.19,2.3l-20.12,0,1.82-6.71H182a1.22,1.22,0,0,1,1.25,1.37m1.25-9.9L183.69,26c-.4,1.37-1.61,1.62-2.78,1.62h-19l1.65-6.1h19.52c1.53,0,1.74.36,1.37,1.73"/><path d="M43.78,21.41a5.33,5.33,0,0,0,4.8-3.59L52.66,3.64A2.7,2.7,0,0,0,50,0H34.72a5.32,5.32,0,0,0-4.8,3.64l-3.48,12a5.3,5.3,0,0,1-4.81,3.59H9a5.27,5.27,0,0,0-4.77,3.6L.14,37.05a2.67,2.67,0,0,0,2.71,3.6h12.2a2.66,2.66,0,0,1,2.71,3.59L14.32,56.36A2.71,2.71,0,0,0,17,60H32.26A5.31,5.31,0,0,0,37,56.36l4.08-14.18a2.67,2.67,0,0,0-2.71-3.59H26.2A2.68,2.68,0,0,1,23.49,35l2.87-10a5.27,5.27,0,0,1,4.77-3.6"/><path d="M100.79,17.78H65a5,5,0,0,0-4.53,3.47l-4,14.91c-1,3.64,1.5,6.63,5.46,6.63H95.13a.69.69,0,0,0,.6-.45L96.62,39a.32.32,0,0,0-.32-.44H72.66c-2.86,0-4.32-2.19-3.39-4.81l2.79-9.62c.69-2.3,1.61-2.67,3.92-2.67H99.86a.69.69,0,0,0,.6-.44l.77-2.79a.45.45,0,0,0-.44-.48"/><path d="M149.8,17.78H138.6a.65.65,0,0,0-.6.44l-4,15.19c-1.09,4.17-2.91,5.1-6.1,5.1H115.73c-3.87,0-4.12-2.19-3.39-5.1l4-15.19a.32.32,0,0,0-.32-.44H105a.7.7,0,0,0-.61.44L99.57,35.76c-1,3.84,1.38,7,5.34,7h31.43a10,10,0,0,0,9.09-7l4.65-17.54a.29.29,0,0,0-.28-.44"/><path d="M242.08,17.78H203.9a4.86,4.86,0,0,0-4.53,3.47l-4.28,16.24c-.57,2.55,2.14,5.3,5.7,5.3h34.58a.7.7,0,0,0,.61-.45l.89-3.31a.35.35,0,0,0-.37-.44l-26.06,0c-3.76,0-3.19-2.27-2.5-4.81l.52-2c0-.16.12-.2.29-.16H238a.78.78,0,0,0,.6-.45l.81-3a.34.34,0,0,0-.36-.44H209.92c-.21,0-.33-.12-.29-.33s.85-3.15.85-3.15c.61-2.34,1.58-2.66,4.61-2.66h26a.66.66,0,0,0,.6-.45l.77-2.83c0-.32-.12-.52-.36-.52"/></g></g></svg>